<svg width="727" height="586" viewBox="0 0 727 586" fill="none" xmlns="http://www.w3.org/2000/svg">
<path d="M312.841 518.421C317.868 511.383 324.673 506.234 333.229 504.307C340.689 502.626 348.36 502.912 355.944 502.971L451.832 503.71C460.044 503.773 467.918 510.886 467.537 519.411C467.158 527.863 460.635 535.179 451.832 535.111C423.743 534.895 395.655 534.678 367.566 534.462C360.944 534.411 354.318 534.291 347.696 534.313C346.209 534.318 344.728 534.396 343.242 534.413C342.882 534.417 342.622 534.414 342.439 534.406C342.393 534.42 342.354 534.433 342.294 534.449C341.519 534.662 340.724 534.809 339.944 535.011C340.218 535.019 339.439 535.505 339.048 535.669C338.994 535.775 338.879 535.963 338.688 536.253C338.421 536.754 337.631 538.273 337.598 538.226C336.411 541.227 335.431 544.307 334.667 547.443C332.842 554.358 332.44 555.804 332.178 562.292C331.846 570.487 325.192 578.382 316.473 577.992C308.249 577.624 300.413 571.082 300.769 562.292C301.369 547.48 303.969 530.842 312.841 518.421Z" fill="#E6E6E6"/>
<path d="M446.196 553.85C447.997 542.939 449.763 532.02 451.599 521.115C453.462 510.052 457.267 499.921 465.879 492.66C468.18 490.72 470.565 488.909 472.961 487.104C473.804 486.469 474.645 485.833 475.477 485.184C475.527 485.146 475.559 485.121 475.602 485.088C475.694 485.009 475.803 484.916 475.951 484.791C479.54 481.754 483.008 478.582 486.312 475.21C489.245 472.216 492.051 469.094 494.728 465.844C495.397 465.032 496.058 464.213 496.709 463.387C496.822 463.245 497.425 462.465 497.823 461.956C498.193 461.446 498.869 460.526 498.983 460.365C499.745 459.289 500.493 458.202 501.227 457.105C506.229 449.613 510.56 441.694 514.17 433.441C514.528 432.623 514.878 431.799 515.219 430.971C515.311 430.718 515.429 430.394 515.586 429.962C516.314 427.961 517.04 425.964 517.705 423.94C519.118 419.641 520.333 415.279 521.35 410.853C521.853 408.668 522.306 406.471 522.708 404.264C522.916 403.129 523.11 401.991 523.29 400.851C523.32 400.662 523.497 399.432 523.6 398.737C523.677 398.039 523.82 396.803 523.839 396.612C523.954 395.462 524.056 394.312 524.145 393.161C524.346 390.57 524.482 387.975 524.553 385.376C524.673 380.757 524.591 376.137 524.304 371.519C524.142 368.923 523.91 366.335 523.624 363.751C523.607 363.593 523.593 363.466 523.581 363.353C523.564 363.237 523.543 363.106 523.519 362.943C523.308 361.515 523.086 360.089 522.837 358.668C521.895 353.271 520.67 347.928 519.167 342.66C518.455 340.168 517.682 337.697 516.848 335.246C516.476 334.158 516.092 333.074 515.696 331.994C515.722 332.064 514.536 329.035 514.52 328.933C509.814 317.816 502.116 307.681 502.105 295.053C502.098 286.503 509.334 278.312 517.81 278.707C522.036 278.866 526.035 280.659 528.965 283.708C531.895 286.758 533.526 290.825 533.515 295.053C533.515 295.245 533.515 295.409 533.516 295.568C533.595 295.834 533.661 296.056 533.721 296.252C534.638 298.246 535.763 300.141 536.77 302.085C539.529 307.407 541.883 312.904 544.12 318.481C547.782 327.564 550.585 336.969 552.492 346.574C556.638 367.619 556.959 389.238 553.442 410.397C547.353 447.502 527.273 483.021 499.356 506.896C496.934 508.968 494.452 510.97 491.947 512.932C490.91 513.743 489.865 514.54 488.814 515.332C488.318 515.706 486.261 517.328 487.166 516.542C485.22 518.202 484.401 519.038 483.901 520.26C483.829 520.543 483.73 520.925 483.596 521.449C483.244 522.828 482.909 524.204 482.631 525.602C480.201 537.82 478.513 550.244 476.483 562.541C475.088 570.991 464.683 576.49 457.164 573.958C448.413 571.01 444.701 562.904 446.196 553.85Z" fill="#E6E6E6"/>
<path d="M311.253 585.541C317.848 585.558 324.181 582.959 328.863 578.314C333.544 573.669 336.191 567.358 336.223 560.764V542.854C354.979 544.953 419.205 544.467 437.616 541.509V560.048C437.665 566.636 440.318 572.938 444.995 577.579C449.673 582.221 455.996 584.825 462.586 584.825C469.176 584.825 475.5 582.221 480.177 577.579C484.855 572.938 487.507 566.636 487.557 560.048V523.65C512.492 509.801 533.279 489.551 547.772 464.989C562.266 440.427 569.941 412.443 570.006 383.926C570.006 335.029 547.84 289.414 509.191 258.779C484.062 238.793 453.53 226.773 421.518 224.264C417.172 223.923 412.801 223.751 408.523 223.751C393.454 223.751 325.467 226.078 308.409 230.984L269.512 192.399C268.941 191.824 268.21 191.432 267.415 191.273C266.62 191.115 265.795 191.197 265.046 191.509C264.292 191.809 263.646 192.33 263.193 193.003C262.741 193.677 262.502 194.472 262.51 195.283V201.418L254.936 193.919C254.365 193.344 253.636 192.952 252.841 192.793C252.046 192.634 251.221 192.716 250.473 193.028C249.718 193.328 249.072 193.849 248.619 194.523C248.165 195.197 247.927 195.992 247.934 196.804V265.362C228.416 282.953 213.54 305.085 204.625 329.798C195.709 354.511 193.029 381.041 196.822 407.038C200.614 433.034 210.763 457.693 226.368 478.831C241.973 499.968 262.552 516.931 286.283 528.215V560.764C286.315 567.358 288.962 573.669 293.643 578.314C298.324 582.959 304.657 585.558 311.253 585.541ZM334.26 540.628V560.764C334.211 566.832 331.765 572.634 327.455 576.907C323.146 581.181 317.322 583.578 311.253 583.578C305.183 583.578 299.36 581.181 295.05 576.907C290.741 572.634 288.295 566.832 288.246 560.764V526.976L287.685 526.71C261.058 514.078 238.454 494.315 222.383 469.617C201.903 438.099 193.386 400.293 198.373 363.042C203.36 325.79 221.522 291.554 249.571 266.53L249.897 266.237V196.804C249.89 196.382 250.012 195.968 250.248 195.618C250.483 195.268 250.82 194.999 251.214 194.846C251.605 194.679 252.037 194.634 252.454 194.717C252.872 194.799 253.254 195.006 253.551 195.31L264.473 206.125V195.283C264.466 194.862 264.588 194.448 264.824 194.098C265.059 193.747 265.396 193.478 265.79 193.325C266.182 193.158 266.615 193.114 267.033 193.197C267.451 193.281 267.833 193.488 268.131 193.793L307.86 233.205L308.425 233.028C324.282 228.066 393.34 225.713 408.523 225.713C412.75 225.713 417.07 225.884 421.363 226.221C452.987 228.699 483.148 240.573 507.971 260.317C546.147 290.577 568.043 335.631 568.043 383.926C567.977 412.191 560.343 439.923 545.934 464.241C531.524 488.559 510.864 508.577 486.1 522.214L485.593 522.494V560.048C485.543 566.115 483.097 571.916 478.787 576.189C474.478 580.461 468.655 582.858 462.586 582.858C456.517 582.858 450.694 580.461 446.385 576.189C442.076 571.916 439.629 566.115 439.579 560.048V539.16L438.416 539.379C421.871 542.491 352.206 542.981 335.369 540.773L334.26 540.628Z" fill="#3F3D56"/>
<path d="M444.32 116.888L553.015 149.546C556.472 150.589 559.374 152.961 561.083 156.141C562.792 159.322 563.168 163.05 562.129 166.508C561.089 169.965 558.72 172.869 555.54 174.581C552.361 176.293 548.632 176.673 545.172 175.638L450.052 147.053L448.059 146.455C447.656 136.189 444.87 126.158 439.922 117.153C440.543 116.874 441.207 116.702 441.885 116.643C442.705 116.564 443.532 116.647 444.32 116.888Z" fill="#297FFF"/>
<path d="M547.052 182.601C548.495 182.597 549.9 182.14 551.07 181.295C552.239 180.449 553.113 179.258 553.568 177.889L560.364 157.384C560.648 156.528 560.761 155.624 560.695 154.724C560.63 153.825 560.388 152.947 559.983 152.141C559.578 151.334 559.018 150.616 558.335 150.026C557.652 149.436 556.86 148.987 556.003 148.703L467.536 119.392C466.68 119.108 465.776 118.996 464.876 119.061C463.976 119.127 463.098 119.369 462.292 119.773C461.485 120.178 460.767 120.738 460.176 121.42C459.586 122.103 459.137 122.895 458.853 123.751L452.056 144.256C451.49 145.942 451.604 147.783 452.372 149.387C453.14 150.991 454.503 152.234 456.172 152.851C456.253 152.882 456.336 152.911 456.419 152.938L544.884 182.248C545.583 182.481 546.315 182.6 547.052 182.601Z" fill="#2F2E41"/>
<path d="M381.374 80.4729C399.229 80.4798 416.381 87.4324 429.199 99.859C442.017 112.286 449.496 129.211 450.052 147.053C450.072 147.75 450.081 148.456 450.081 149.163C450.081 162.749 446.052 176.029 438.502 187.325C430.952 198.621 420.222 207.425 407.667 212.624C395.112 217.823 381.298 219.184 367.97 216.533C354.642 213.883 342.399 207.341 332.79 197.734C323.181 188.128 316.637 175.888 313.986 162.564C311.335 149.239 312.696 135.428 317.896 122.876C323.097 110.325 331.903 99.597 343.202 92.0493C354.501 84.5015 367.785 80.4729 381.374 80.4729ZM381.374 215.89C399.07 215.872 416.036 208.836 428.549 196.326C441.062 183.816 448.1 166.855 448.118 149.163C448.118 148.25 448.099 147.348 448.059 146.455C447.528 133.384 443.165 120.757 435.513 110.145C427.861 99.5336 417.258 91.4046 405.022 86.769C392.786 82.1335 379.457 81.1961 366.692 84.0733C353.928 86.9505 342.291 93.5154 333.228 102.952C324.166 112.388 318.077 124.279 315.721 137.147C313.364 150.015 314.843 163.292 319.973 175.326C325.103 187.36 333.659 197.621 344.575 204.834C355.492 212.046 368.289 215.891 381.374 215.89Z" fill="#3F3D56"/>
<path d="M323.463 149.163C323.463 164.518 329.564 179.244 340.425 190.102C351.285 200.959 366.015 207.059 381.374 207.059C396.733 207.059 411.462 200.959 422.323 190.102C433.183 179.244 439.284 164.518 439.284 149.163C439.284 147.328 439.196 145.522 439.029 143.737C437.634 128.917 430.583 115.205 419.341 105.446C408.099 95.6877 393.529 90.6328 378.657 91.3311C363.785 92.0295 349.753 98.4274 339.475 109.196C329.197 119.966 323.463 134.278 323.463 149.163Z" fill="#E6E6E6"/>
<path d="M364.128 153.01C365.532 151.165 367.379 149.703 369.497 148.761C372.11 147.66 374.808 146.774 377.566 146.111V130.352C373.328 130.991 369.353 132.802 366.091 135.582L362.891 128.762C364.732 127.123 366.845 125.818 369.134 124.906C371.672 123.878 374.336 123.195 377.055 122.874V114.887H384.465V122.953C387.327 123.274 390.087 124.201 392.563 125.671C394.8 126.994 396.682 128.839 398.05 131.049C399.356 133.204 400.032 135.682 400.003 138.202C400.131 140.933 399.339 143.628 397.756 145.856C396.298 147.786 394.372 149.312 392.161 150.292C389.506 151.425 386.762 152.334 383.955 153.01V168.112C388.956 167.735 393.721 165.834 397.608 162.666L400.808 169.495C398.635 171.292 396.163 172.693 393.505 173.636C390.593 174.678 387.551 175.312 384.465 175.52V183.439H377.055V175.373C372.939 174.924 369.079 173.154 366.052 170.329C364.719 169.051 363.666 167.511 362.96 165.805C362.254 164.098 361.909 162.264 361.949 160.418C361.826 157.775 362.593 155.166 364.128 153.01ZM383.955 144.443C385.76 143.896 387.439 142.995 388.892 141.794C389.468 141.281 389.924 140.648 390.226 139.939C390.528 139.229 390.669 138.462 390.639 137.692C390.693 135.944 390.051 134.246 388.853 132.972C387.526 131.635 385.813 130.746 383.955 130.43V144.443ZM372.913 165.325C374.165 166.609 375.796 167.458 377.566 167.749V154.756C375.874 155.21 374.291 156.001 372.913 157.082C372.39 157.528 371.975 158.086 371.698 158.715C371.421 159.343 371.29 160.026 371.313 160.713C371.245 162.397 371.816 164.045 372.913 165.325Z" fill="#297FFF"/>
<path d="M543.898 265.705C545.415 265.702 546.889 265.199 548.091 264.274C549.294 263.349 550.157 262.052 550.548 260.587L554.248 246.584C554.711 244.824 554.457 242.952 553.542 241.379C552.626 239.806 551.124 238.66 549.365 238.192L432.62 207.351C430.858 206.891 428.986 207.148 427.414 208.065C425.841 208.982 424.695 210.484 424.227 212.243L421.092 224.107L421.68 224.152C451.621 226.48 480.269 237.332 504.234 255.427L504.404 255.509L542.155 265.479C542.723 265.629 543.309 265.705 543.898 265.705Z" fill="#2F2E41"/>
<path d="M563.233 334.872C576.927 332.849 590.025 327.898 601.633 320.357C607.383 316.623 612.707 312.27 617.508 307.376C622.247 302.544 626.78 297.052 629.127 290.616C631.385 284.662 631.269 278.069 628.802 272.198C626.369 266.364 621.72 261.732 615.876 259.318C609.997 256.974 602.894 256.724 597.173 259.291C594.446 260.485 592.087 262.384 590.337 264.792C589.524 265.902 588.921 267.152 588.56 268.479C588.225 269.683 588.195 270.95 588.471 272.168C588.807 273.384 589.399 274.514 590.207 275.483C591.015 276.451 592.021 277.236 593.157 277.784C595.658 279.067 598.368 279.893 601.159 280.224C603.966 280.606 607.999 280.955 610.256 278.702C610.72 278.256 611.086 277.718 611.328 277.121C611.498 276.665 611.556 276.174 611.497 275.69C611.53 275.904 611.361 275.227 611.371 275.254C611.406 275.354 611.561 275.598 611.341 275.223C611.273 275.1 611.196 274.981 611.113 274.867C611.187 274.963 611.351 275.124 611.058 274.848C610.817 274.584 610.506 274.392 610.161 274.294C610.025 274.255 609.887 274.223 609.751 274.186C609.405 274.091 610.096 274.191 609.742 274.18C609.605 274.175 609.467 274.179 609.331 274.173C608.983 274.157 609.674 274.078 609.341 274.162C609.211 274.194 609.083 274.226 608.956 274.266C608.679 274.353 609.152 274.063 608.964 274.28C608.744 274.535 609.195 274.033 608.945 274.279C608.821 274.401 608.704 274.53 608.594 274.666C608.161 275.094 607.576 275.334 606.967 275.334C606.358 275.334 605.774 275.094 605.34 274.666C604.922 274.228 604.688 273.645 604.688 273.039C604.688 272.434 604.922 271.851 605.34 271.413C607.609 268.601 612.09 269.296 614.385 271.672C617.312 274.703 616.153 279.506 613.306 282.151C610.083 285.144 605.518 285.352 601.372 284.85C597.869 284.515 594.454 283.55 591.293 282.003C588.152 280.46 585.695 277.806 584.398 274.556C583.813 272.822 583.603 270.983 583.782 269.161C583.96 267.34 584.524 265.577 585.435 263.989C589.096 257.109 596.675 253.582 604.167 252.971C608.025 252.669 611.903 253.134 615.579 254.341C619.255 255.547 622.656 257.471 625.583 259.999C631.226 265.078 634.701 272.131 635.289 279.699C635.943 287.545 632.898 295.165 628.458 301.497C623.81 307.931 618.264 313.666 611.989 318.526C599.72 328.318 585.329 335.104 569.967 338.339C568.14 338.716 566.303 339.039 564.456 339.308C563.868 339.45 563.248 339.363 562.723 339.065C562.197 338.767 561.805 338.279 561.626 337.701C561.468 337.113 561.548 336.487 561.849 335.957C562.15 335.428 562.647 335.038 563.233 334.872Z" fill="#3F3D56"/>
<path d="M343.972 234.902C364.037 234.619 384.038 235.128 403.976 236.429C410.791 236.874 416.688 239.282 416.688 243.33C416.688 246.714 410.838 250.678 403.976 250.23C384.048 248.929 364.047 248.42 343.972 248.703C327.606 248.934 327.615 235.133 343.972 234.902Z" fill="#CCCCCC"/>
<path d="M373.628 248.02C375.796 248.02 426.734 247.939 426.734 240.904C426.734 233.87 375.796 233.789 373.628 233.789C371.459 233.789 320.521 233.87 320.521 240.904C320.521 247.939 371.459 248.02 373.628 248.02ZM424.743 240.904C423.349 243.037 404.625 246.057 373.628 246.057C342.631 246.057 323.907 243.037 322.513 240.904C323.907 238.772 342.631 235.752 373.628 235.752C404.625 235.752 423.349 238.772 424.743 240.904Z" fill="#3F3D56"/>
<path d="M212.014 432.943C200.738 432.63 186.704 432.239 175.892 424.343C172.673 421.896 170.028 418.774 168.142 415.197C166.257 411.62 165.177 407.673 164.977 403.635C164.757 397.399 167.01 391.956 171.323 388.313C176.97 383.543 185.215 382.424 194.102 385.034L184.895 317.769L191.653 316.843L202.477 395.922L196.833 393.333C190.29 390.333 181.308 388.806 175.726 393.521C174.356 394.754 173.288 396.286 172.606 397.999C171.924 399.711 171.646 401.558 171.794 403.395C171.96 406.401 172.771 409.336 174.173 412C175.574 414.664 177.533 416.996 179.917 418.835C188.33 424.979 199.517 425.772 212.204 426.127L212.014 432.943Z" fill="#3F3D56"/>
<path d="M230.701 323.57H267.442V330.39H230.701V323.57Z" fill="#3F3D56"/>
<path d="M527.272 297.072C528.907 297.067 530.487 296.48 531.729 295.416C532.971 294.352 533.793 292.881 534.048 291.266L536.291 276.957C536.571 275.157 536.126 273.32 535.052 271.849C533.979 270.377 532.366 269.391 530.567 269.107L411.279 250.421C409.479 250.141 407.641 250.586 406.17 251.659C404.698 252.732 403.712 254.345 403.428 256.144L401.185 270.453C400.905 272.253 401.35 274.09 402.423 275.561C403.497 277.033 405.11 278.019 406.909 278.303L526.197 296.989C526.552 297.044 526.912 297.072 527.272 297.072Z" fill="#2F2E41"/>
<path d="M576.639 129.387C548.993 129.387 526.581 106.981 526.581 79.3416C526.581 51.7022 548.993 29.296 576.639 29.296C604.285 29.296 626.697 51.7022 626.697 79.3416C626.697 106.981 604.285 129.387 576.639 129.387Z" fill="#297FFF"/>
<path d="M548.297 92.2906C546.697 91.7312 545.235 90.8358 544.011 89.6646C543.2 88.8295 542.582 87.8275 542.2 86.7285C541.818 85.6296 541.68 84.4604 541.797 83.3029C541.866 82.4778 542.124 81.6797 542.551 80.9709C542.979 80.262 543.565 79.6616 544.263 79.2167C546.075 78.1029 548.469 78.145 550.886 79.2651L551.165 59.7297L553.127 59.7577L552.799 82.7235L551.305 81.7437C549.573 80.6095 547.083 79.787 545.292 80.8885C544.849 81.1801 544.479 81.5699 544.211 82.0277C543.943 82.4854 543.785 82.9987 543.748 83.5277C543.665 84.3901 543.769 85.2601 544.053 86.0786C544.337 86.8971 544.794 87.6448 545.393 88.2709C547.521 90.3818 550.671 91.089 554.266 91.7359L553.918 93.6672C552.007 93.3771 550.126 92.9164 548.297 92.2906Z" fill="#2F2E41"/>
<path d="M530.951 58.3586L541.405 59.9413L541.111 61.8815L530.657 60.2988L530.951 58.3586Z" fill="#2F2E41"/>
<path d="M563.947 63.3533L574.401 64.936L574.107 66.8762L563.653 65.2935L563.947 63.3533Z" fill="#2F2E41"/>
<path d="M543.558 296.197C545.359 296.194 547.115 295.642 548.594 294.615C550.073 293.589 551.204 292.137 551.837 290.452L586.351 198.045C590.569 186.712 590.119 174.169 585.098 163.167C580.078 152.166 570.897 143.605 559.57 139.362L531.507 128.886C530.421 128.478 529.266 128.289 528.108 128.329C526.949 128.369 525.81 128.638 524.756 129.12C523.704 129.59 522.756 130.264 521.968 131.104C521.18 131.944 520.568 132.933 520.167 134.013L456.233 254.695C455.818 255.783 455.622 256.943 455.657 258.107C455.692 259.271 455.956 260.417 456.436 261.478C456.916 262.54 457.6 263.496 458.451 264.292C459.301 265.087 460.301 265.707 461.392 266.115L540.471 295.636C541.458 296.007 542.504 296.197 543.558 296.197Z" fill="#2F2E41"/>
<path d="M540.021 132.064L476.585 216.872L519.51 132.954C519.864 131.975 520.408 131.075 521.11 130.306C521.813 129.537 522.66 128.914 523.603 128.473C524.546 128.031 525.568 127.78 526.608 127.733C527.649 127.686 528.688 127.844 529.667 128.199L540.021 132.064Z" fill="#E6E6E6"/>
<path d="M439.579 196.471L552.843 189.177C554.628 189.062 556.374 188.596 557.979 187.807C559.585 187.018 561.019 185.92 562.2 184.577C563.381 183.234 564.286 181.671 564.863 179.978C565.44 178.285 565.678 176.495 565.563 174.71C565.448 172.925 564.982 171.18 564.193 169.575C563.403 167.97 562.305 166.536 560.961 165.356C559.618 164.175 558.055 163.27 556.361 162.693C554.668 162.116 552.877 161.879 551.092 161.994L437.827 169.287C436.991 169.341 436.174 169.559 435.422 169.928C434.67 170.298 433.998 170.812 433.445 171.441C432.892 172.07 432.468 172.802 432.198 173.595C431.928 174.388 431.816 175.226 431.87 176.062L432.801 190.516C432.91 192.204 433.685 193.78 434.956 194.896C436.227 196.013 437.89 196.58 439.579 196.471Z" fill="#297FFF"/>
<path d="M469.844 201.147C469.994 201.147 470.144 201.142 470.294 201.132L563.301 195.143C564.202 195.085 565.082 194.851 565.891 194.453C566.701 194.055 567.425 193.501 568.02 192.824C568.616 192.146 569.072 191.358 569.363 190.504C569.654 189.65 569.774 188.747 569.716 187.847L568.126 163.16C568.068 162.26 567.833 161.38 567.435 160.57C567.036 159.761 566.483 159.038 565.805 158.442C565.127 157.847 564.339 157.39 563.485 157.099C562.63 156.809 561.727 156.689 560.827 156.747L467.821 162.736C466.003 162.855 464.307 163.69 463.104 165.058C461.902 166.425 461.291 168.214 461.406 170.032L462.996 194.72C463.084 196.042 463.551 197.312 464.343 198.375C465.134 199.439 466.216 200.252 467.458 200.716C468.221 201.001 469.03 201.147 469.844 201.147Z" fill="#2F2E41"/>
<path d="M577.213 46.0621C570.627 40.3997 561.584 45.4651 554.032 44.5784C546.807 43.73 541.102 37.2506 539.644 30.367C537.944 22.3361 542.113 14.2904 548.259 9.28331C554.99 3.79931 563.916 2.22498 572.376 3.23956C582.071 4.40239 590.938 8.92057 598.894 14.3855C606.573 19.4972 613.636 25.48 619.939 32.2147C625.584 38.4475 630.367 45.8769 631.894 54.264C633.282 61.8861 632.222 70.3326 627.715 76.7896C625.326 80.0991 622.123 82.737 618.416 84.4488C614.551 86.346 610.429 87.7024 606.685 89.8475C601.023 93.091 595.521 99.8163 597.295 106.815C597.675 108.344 598.425 109.756 599.479 110.926C600.746 112.332 603.031 110.475 601.761 109.065C599.53 106.589 599.618 103.287 600.807 100.331C602.221 97.0003 604.724 94.2482 607.907 92.5258C611.826 90.2856 616.153 88.9028 620.17 86.8622C624.015 84.9982 627.353 82.2331 629.899 78.8021C634.707 72.1225 636.145 63.4294 635.054 55.3876C633.874 46.6852 629.402 38.7772 623.795 32.1503C617.694 24.9384 610.199 18.8337 602.543 13.3495C594.327 7.46486 585.251 2.48981 575.207 0.690413C566.5 -0.869381 557.063 0.0909269 549.45 4.83432C542.343 9.26197 536.894 16.8784 536.352 25.389C536.157 29.2613 536.998 33.1156 538.788 36.555C540.579 39.9945 543.253 42.8949 546.537 44.9579C549.906 46.9737 553.823 47.8809 557.736 47.5518C561.919 47.2841 566.106 46.0035 570.315 46.3591C572.22 46.4747 574.036 47.2079 575.486 48.4477C576.925 49.6849 578.64 47.2891 577.213 46.0621Z" fill="#2F2E41"/>
</svg>
